G04 Layer: TopPasteMaskLayer*
G04 EasyEDA v6.5.54, 2026-09-25 19:01:27*
G04 f539fd3045a942f1a110150e95549220,bbbd897f6cdb4b92894c841a2d2932b2,10*
G04 Gerber Generator version 0.2*
G04 Scale: 100 percent, Rotated: No, Reflected: No *
G04 Dimensions in millimeters *
G04 leading zeros omitted , absolute positions ,4 integer and 5 decimal *
%FSLAX45Y45*%
%MOMM*%

%ADD10O,0.58801X1.799996*%
%ADD11O,0.58801X2.045005*%
%ADD12R,2.2000X2.0000*%
%ADD13R,1.5500X1.0000*%
%ADD14R,0.6500X1.0000*%
%ADD15R,0.0157X1.0000*%
%ADD16O,0.629996X1.864995*%
%ADD17R,1.0000X1.5500*%

%LPD*%
D10*
G01*
X9906000Y8287105D03*
G01*
X10033000Y8287105D03*
G01*
X10160000Y8287105D03*
G01*
X10287000Y8287105D03*
G01*
X9906000Y8807094D03*
G01*
X10033000Y8807094D03*
G01*
X10160000Y8807094D03*
G01*
X10287000Y8807094D03*
D11*
G01*
X9893300Y9184259D03*
G01*
X10020300Y9184259D03*
G01*
X10147300Y9184259D03*
G01*
X10274300Y9184259D03*
G01*
X9893300Y9738740D03*
G01*
X10020300Y9738740D03*
G01*
X10147300Y9738740D03*
G01*
X10274300Y9738740D03*
D12*
G01*
X8686800Y8505799D03*
G01*
X8686800Y8105800D03*
D13*
G01*
X9550400Y8891600D03*
G01*
X9550400Y9091599D03*
D14*
G01*
X8541004Y9120200D03*
G01*
X8730995Y9120200D03*
G01*
X8636000Y9320199D03*
G01*
X8528304Y8726500D03*
G01*
X8718295Y8726500D03*
G01*
X8623300Y8926499D03*
D16*
G01*
X7620000Y9244050D03*
G01*
X7747000Y9244050D03*
G01*
X7874000Y9244050D03*
G01*
X8001000Y9244050D03*
G01*
X7620000Y9780549D03*
G01*
X7747000Y9780549D03*
G01*
X7874000Y9780549D03*
G01*
X8001000Y9780549D03*
D13*
G01*
X7302500Y9412300D03*
G01*
X7302500Y9612299D03*
D17*
G01*
X7862900Y8547100D03*
G01*
X8062899Y8547100D03*
G01*
X7316800Y8559800D03*
G01*
X7516799Y8559800D03*
G01*
X7329500Y8890000D03*
G01*
X7529499Y8890000D03*
D13*
G01*
X8356600Y8469299D03*
G01*
X8356600Y8269300D03*
D17*
G01*
X8075599Y8877300D03*
G01*
X7875600Y8877300D03*
D13*
G01*
X9537700Y9501200D03*
G01*
X9537700Y9701199D03*
D17*
G01*
X8993200Y9321800D03*
G01*
X9193199Y9321800D03*
D13*
G01*
X9169400Y8688400D03*
G01*
X9169400Y8888399D03*
G01*
X9550400Y8218500D03*
G01*
X9550400Y8418499D03*
M02*
