G04 Layer: TopLayer*
G04 EasyEDA v6.5.54, 2026-09-25 19:01:27*
G04 f539fd3045a942f1a110150e95549220,bbbd897f6cdb4b92894c841a2d2932b2,10*
G04 Gerber Generator version 0.2*
G04 Scale: 100 percent, Rotated: No, Reflected: No *
G04 Dimensions in millimeters *
G04 leading zeros omitted , absolute positions ,4 integer and 5 decimal *
%FSLAX45Y45*%
%MOMM*%

%ADD10C,1.0000*%
%ADD11C,0.8000*%
%ADD12C,3.0000*%
%ADD13O,0.58801X1.799996*%
%ADD14O,0.58801X2.045005*%
%ADD15R,2.2000X2.0000*%
%ADD16R,1.5500X1.0000*%
%ADD17R,0.6500X1.0000*%
%ADD18O,0.629996X1.864995*%
%ADD19O,0.019X1.864995*%
%ADD20R,1.0000X1.5500*%
%ADD21C,1.8000*%
%ADD22C,1.2000*%
%ADD23R,3.0000X3.0000*%

%LPD*%
G36*
X6614668Y7734808D02*
G01*
X6610756Y7735570D01*
X6607505Y7737805D01*
X6605270Y7741056D01*
X6604508Y7744968D01*
X6604508Y10365232D01*
X6605270Y10369143D01*
X6607505Y10372394D01*
X6610756Y10374630D01*
X6614668Y10375392D01*
X10860532Y10375392D01*
X10864443Y10374630D01*
X10867694Y10372394D01*
X10869930Y10369143D01*
X10870692Y10365232D01*
X10870692Y7744968D01*
X10869930Y7741056D01*
X10867694Y7737805D01*
X10864443Y7735570D01*
X10860532Y7734808D01*
G37*

%LPC*%
G36*
X10455046Y7837779D02*
G01*
X10753953Y7837779D01*
X10760252Y7838490D01*
X10765688Y7840421D01*
X10770616Y7843520D01*
X10774680Y7847584D01*
X10777778Y7852511D01*
X10779709Y7857947D01*
X10780420Y7864246D01*
X10780420Y8163153D01*
X10779709Y8169452D01*
X10777778Y8174888D01*
X10774680Y8179816D01*
X10770616Y8183880D01*
X10765688Y8186978D01*
X10760252Y8188909D01*
X10753953Y8189620D01*
X10681563Y8189620D01*
X10677702Y8190382D01*
X10674400Y8192566D01*
X10565028Y8301939D01*
X10562844Y8305190D01*
X10562082Y8309102D01*
X10562844Y8313013D01*
X10565028Y8316264D01*
X10639856Y8391093D01*
X10649153Y8401100D01*
X10651845Y8404352D01*
X10660075Y8415223D01*
X10662412Y8418677D01*
X10669473Y8430361D01*
X10671454Y8434070D01*
X10677296Y8446363D01*
X10678922Y8450224D01*
X10683494Y8463076D01*
X10684662Y8467090D01*
X10687913Y8480298D01*
X10688726Y8484463D01*
X10690606Y8497925D01*
X10691012Y8502142D01*
X10691520Y8515807D01*
X10691520Y8942781D01*
X10691012Y8956446D01*
X10690606Y8960612D01*
X10688726Y8974124D01*
X10687913Y8978239D01*
X10684662Y8991498D01*
X10683494Y8995511D01*
X10678922Y9008313D01*
X10677296Y9012224D01*
X10671454Y9024518D01*
X10669473Y9028226D01*
X10662412Y9039860D01*
X10660075Y9043365D01*
X10651845Y9054236D01*
X10649153Y9057436D01*
X10639856Y9067495D01*
X10389819Y9317532D01*
X10378236Y9328353D01*
X10375036Y9331045D01*
X10364165Y9339275D01*
X10360660Y9341612D01*
X10349026Y9348673D01*
X10345318Y9350654D01*
X10333024Y9356496D01*
X10329113Y9358122D01*
X10316311Y9362694D01*
X10312298Y9363862D01*
X10299039Y9367113D01*
X10294924Y9367926D01*
X10281412Y9369806D01*
X10277246Y9370212D01*
X10263581Y9370720D01*
X10211054Y9370720D01*
X10193020Y9369806D01*
X10188092Y9369145D01*
X9893554Y9369145D01*
X9875520Y9368231D01*
X9857892Y9365538D01*
X9840620Y9361068D01*
X9823958Y9354870D01*
X9807956Y9347047D01*
X9792817Y9337598D01*
X9778746Y9326727D01*
X9765792Y9314434D01*
X9754209Y9300921D01*
X9744049Y9286290D01*
X9735362Y9270695D01*
X9728352Y9254337D01*
X9723018Y9237319D01*
X9719411Y9219895D01*
X9717633Y9202166D01*
X9717633Y9184335D01*
X9719411Y9166606D01*
X9723018Y9149181D01*
X9728352Y9132163D01*
X9735362Y9115806D01*
X9744049Y9100210D01*
X9754209Y9085580D01*
X9765792Y9072067D01*
X9778746Y9059773D01*
X9792817Y9048902D01*
X9807956Y9039453D01*
X9823958Y9031630D01*
X9840620Y9025432D01*
X9857892Y9020962D01*
X9875520Y9018270D01*
X9893554Y9017355D01*
X10188244Y9017355D01*
X10192105Y9016593D01*
X10195407Y9014358D01*
X10336733Y8873083D01*
X10338917Y8869781D01*
X10339679Y8865870D01*
X10339679Y8592667D01*
X10338917Y8588806D01*
X10336733Y8585504D01*
X10217200Y8465972D01*
X10213898Y8463788D01*
X10210038Y8463026D01*
X9880803Y8463026D01*
X9867138Y8462518D01*
X9862921Y8462111D01*
X9849459Y8460232D01*
X9845294Y8459419D01*
X9832086Y8456168D01*
X9828072Y8454999D01*
X9815220Y8450427D01*
X9811359Y8448802D01*
X9799066Y8442960D01*
X9795357Y8440978D01*
X9783673Y8433917D01*
X9780219Y8431580D01*
X9769348Y8423351D01*
X9766096Y8420658D01*
X9756140Y8411413D01*
X9753193Y8408416D01*
X9741560Y8394903D01*
X9733635Y8383778D01*
X9731400Y8380272D01*
X9724644Y8368436D01*
X9722713Y8364677D01*
X9717176Y8352231D01*
X9715703Y8348319D01*
X9711436Y8335365D01*
X9707422Y8317992D01*
X9706762Y8313877D01*
X9705594Y8303463D01*
X9704527Y8299907D01*
X9702292Y8297011D01*
X9699142Y8295081D01*
X9695484Y8294420D01*
X9298330Y8294420D01*
X9291726Y8294014D01*
X9186316Y8294014D01*
X9183827Y8294319D01*
X9179661Y8296198D01*
X9168180Y8300516D01*
X9156242Y8303107D01*
X9144000Y8303971D01*
X9131757Y8303107D01*
X9119819Y8300516D01*
X9108338Y8296198D01*
X9097568Y8290356D01*
X9087764Y8282990D01*
X9079077Y8274354D01*
X9071762Y8264550D01*
X9065869Y8253780D01*
X9062872Y8245652D01*
X9060535Y8242046D01*
X9004808Y8186318D01*
X9001506Y8184083D01*
X8997594Y8183321D01*
X8832850Y8183321D01*
X8828989Y8184083D01*
X8825687Y8186318D01*
X8823502Y8189620D01*
X8822690Y8193481D01*
X8822690Y8205216D01*
X8821978Y8211566D01*
X8820099Y8217001D01*
X8817000Y8221929D01*
X8812936Y8225993D01*
X8808008Y8229092D01*
X8802573Y8230971D01*
X8796223Y8231682D01*
X8577376Y8231682D01*
X8571026Y8230971D01*
X8565591Y8229092D01*
X8560663Y8225993D01*
X8556599Y8221929D01*
X8553500Y8217001D01*
X8551621Y8211566D01*
X8550910Y8205216D01*
X8550910Y8006384D01*
X8551621Y8000034D01*
X8553500Y7994599D01*
X8556599Y7989671D01*
X8560663Y7985607D01*
X8565591Y7982508D01*
X8571026Y7980629D01*
X8577376Y7979867D01*
X8796223Y7979867D01*
X8802573Y7980629D01*
X8808008Y7982508D01*
X8812936Y7985607D01*
X8817000Y7989671D01*
X8820099Y7994599D01*
X8821978Y8000034D01*
X8822690Y8006384D01*
X8822690Y8021370D01*
X8823502Y8025231D01*
X8825687Y8028533D01*
X8828989Y8030768D01*
X8832850Y8031530D01*
X9035897Y8031581D01*
X9044736Y8032394D01*
X9047175Y8032800D01*
X9055811Y8034934D01*
X9058148Y8035696D01*
X9066377Y8039100D01*
X9068562Y8040217D01*
X9076182Y8044840D01*
X9085021Y8051901D01*
X9167723Y8134553D01*
X9171330Y8136890D01*
X9179661Y8139988D01*
X9183776Y8141868D01*
X9186316Y8142173D01*
X9297263Y8142173D01*
X9303867Y8142579D01*
X9777425Y8142579D01*
X9780320Y8142173D01*
X9782962Y8140953D01*
X9791496Y8135416D01*
X9795103Y8133384D01*
X9807295Y8127187D01*
X9811105Y8125510D01*
X9823805Y8120634D01*
X9827818Y8119313D01*
X9840976Y8115706D01*
X9845040Y8114842D01*
X9858502Y8112607D01*
X9862667Y8112099D01*
X9876282Y8111236D01*
X10254030Y8111185D01*
X10257891Y8110423D01*
X10261193Y8108238D01*
X10425633Y7943799D01*
X10427817Y7940497D01*
X10428579Y7936636D01*
X10428579Y7864246D01*
X10429290Y7857947D01*
X10431221Y7852511D01*
X10434320Y7847584D01*
X10438384Y7843520D01*
X10443311Y7840421D01*
X10448747Y7838490D01*
G37*
G36*
X7988401Y8191804D02*
G01*
X8357666Y8191855D01*
X8366455Y8192668D01*
X8371382Y8193379D01*
X8433511Y8193379D01*
X8439861Y8194090D01*
X8445296Y8196021D01*
X8450224Y8199120D01*
X8454288Y8203184D01*
X8457387Y8208111D01*
X8459317Y8213547D01*
X8460028Y8219846D01*
X8460028Y8318753D01*
X8459317Y8325053D01*
X8457387Y8330488D01*
X8454288Y8335416D01*
X8450224Y8339480D01*
X8445296Y8342579D01*
X8439861Y8344509D01*
X8433511Y8345220D01*
X8279688Y8345220D01*
X8273338Y8344509D01*
X8269071Y8343595D01*
X8023961Y8343595D01*
X8020050Y8344357D01*
X8016748Y8346592D01*
X7941767Y8421573D01*
X7939582Y8424875D01*
X7938820Y8428736D01*
X7938820Y8772499D01*
X7939582Y8776360D01*
X7941767Y8779662D01*
X7945780Y8783675D01*
X7948879Y8788603D01*
X7950809Y8794038D01*
X7951520Y8800388D01*
X7951520Y8954211D01*
X7950809Y8960561D01*
X7948879Y8965996D01*
X7945780Y8970924D01*
X7944459Y8972245D01*
X7942275Y8975547D01*
X7941513Y8979408D01*
X7941513Y9242044D01*
X7940649Y9252762D01*
X7938262Y9262770D01*
X7934299Y9272320D01*
X7931759Y9277197D01*
X7931403Y9279940D01*
X7931403Y9305391D01*
X7930591Y9315246D01*
X7928457Y9323679D01*
X7928203Y9327337D01*
X7929270Y9330842D01*
X7931556Y9333738D01*
X7934706Y9335668D01*
X7938312Y9336328D01*
X8103514Y9336328D01*
X8107425Y9335566D01*
X8110728Y9333331D01*
X8371586Y9072473D01*
X8373770Y9069222D01*
X8374532Y9065310D01*
X8373770Y9061450D01*
X8371586Y9058148D01*
X8364524Y9051036D01*
X8358936Y9044228D01*
X8352891Y9034576D01*
X8351774Y9032392D01*
X8348370Y9024162D01*
X8347608Y9021826D01*
X8345474Y9013240D01*
X8345068Y9010802D01*
X8344255Y9001963D01*
X8344255Y8832037D01*
X8345068Y8823198D01*
X8346948Y8815120D01*
X8347202Y8811412D01*
X8346135Y8807907D01*
X8343900Y8805011D01*
X8340750Y8803081D01*
X8337092Y8802420D01*
X8239709Y8802370D01*
X8230870Y8801506D01*
X8228431Y8801100D01*
X8219795Y8798966D01*
X8217509Y8798204D01*
X8209280Y8794800D01*
X8207095Y8793683D01*
X8199475Y8789111D01*
X8197443Y8787688D01*
X8190585Y8781999D01*
X8062010Y8653475D01*
X8058708Y8651290D01*
X8054848Y8650528D01*
X8013446Y8650528D01*
X8007146Y8649817D01*
X8001711Y8647887D01*
X7996783Y8644788D01*
X7992719Y8640724D01*
X7989620Y8635796D01*
X7987690Y8630361D01*
X7986979Y8624011D01*
X7986979Y8470188D01*
X7987690Y8463838D01*
X7989620Y8458403D01*
X7992719Y8453475D01*
X7996783Y8449411D01*
X8001711Y8446312D01*
X8007146Y8444382D01*
X8013446Y8443671D01*
X8112353Y8443671D01*
X8118652Y8444382D01*
X8124088Y8446312D01*
X8129016Y8449411D01*
X8133080Y8453475D01*
X8136178Y8458403D01*
X8138109Y8463838D01*
X8138820Y8470188D01*
X8138820Y8511387D01*
X8139582Y8515248D01*
X8141766Y8518550D01*
X8270849Y8647633D01*
X8274151Y8649817D01*
X8278012Y8650579D01*
X8560206Y8650579D01*
X8566556Y8651290D01*
X8571992Y8653221D01*
X8576919Y8656320D01*
X8580983Y8660384D01*
X8584082Y8665311D01*
X8586012Y8670747D01*
X8586520Y8675471D01*
X8587130Y8678011D01*
X8588349Y8680246D01*
X8592667Y8686292D01*
X8593937Y8688374D01*
X8597950Y8696299D01*
X8598916Y8698585D01*
X8602268Y8709406D01*
X8603996Y8720632D01*
X8604148Y8729522D01*
X8603996Y8732012D01*
X8602827Y8740800D01*
X8602319Y8743188D01*
X8599881Y8751773D01*
X8599017Y8754059D01*
X8594191Y8764219D01*
X8588197Y8772956D01*
X8587079Y8775141D01*
X8586520Y8777528D01*
X8586012Y8782253D01*
X8584082Y8787739D01*
X8580983Y8792616D01*
X8576919Y8796731D01*
X8571992Y8799779D01*
X8566556Y8801709D01*
X8563203Y8802065D01*
X8559952Y8803030D01*
X8557158Y8805011D01*
X8498992Y8863177D01*
X8496757Y8866479D01*
X8495995Y8870340D01*
X8495995Y8963660D01*
X8496757Y8967520D01*
X8498992Y8970822D01*
X8569858Y9041739D01*
X8572652Y9043670D01*
X8575903Y9044635D01*
X8579256Y9044990D01*
X8584692Y9046921D01*
X8589619Y9050020D01*
X8593683Y9054084D01*
X8596782Y9059011D01*
X8598712Y9064447D01*
X8599220Y9069120D01*
X8599982Y9072067D01*
X8606840Y9082430D01*
X8608009Y9084564D01*
X8611717Y9092641D01*
X8612581Y9094927D01*
X8615070Y9103512D01*
X8616696Y9114739D01*
X8616848Y9117177D01*
X8616696Y9126067D01*
X8614968Y9137294D01*
X8614359Y9139682D01*
X8610650Y9150400D01*
X8606637Y9158325D01*
X8605367Y9160408D01*
X8601049Y9166453D01*
X8599830Y9168688D01*
X8599220Y9171228D01*
X8598712Y9175953D01*
X8596782Y9181439D01*
X8593683Y9186316D01*
X8589619Y9190431D01*
X8584692Y9193479D01*
X8579256Y9195409D01*
X8572906Y9196120D01*
X8466836Y9196120D01*
X8462975Y9196882D01*
X8459673Y9199067D01*
X8190941Y9467748D01*
X8182102Y9474809D01*
X8174481Y9479432D01*
X8172297Y9480550D01*
X8164068Y9483953D01*
X8161731Y9484715D01*
X8153095Y9486849D01*
X8150656Y9487255D01*
X8141817Y9488068D01*
X7232497Y9488220D01*
X7228586Y9488982D01*
X7225284Y9491167D01*
X7223099Y9494469D01*
X7222337Y9498380D01*
X7223099Y9502241D01*
X7225284Y9505543D01*
X7242048Y9522307D01*
X7245350Y9524542D01*
X7249261Y9525304D01*
X7294067Y9525355D01*
X7302906Y9526168D01*
X7305344Y9526574D01*
X7313930Y9528708D01*
X7316266Y9529470D01*
X7324344Y9532823D01*
X7328509Y9535109D01*
X7330897Y9536074D01*
X7333386Y9536379D01*
X7379411Y9536379D01*
X7385761Y9537090D01*
X7391196Y9539020D01*
X7396124Y9542119D01*
X7400188Y9546183D01*
X7403287Y9551111D01*
X7405217Y9556546D01*
X7405928Y9562846D01*
X7405928Y9604146D01*
X7406690Y9608058D01*
X7408875Y9611309D01*
X7499197Y9701682D01*
X7502499Y9703866D01*
X7506411Y9704628D01*
X7557109Y9704628D01*
X7560970Y9703917D01*
X7564221Y9701784D01*
X7566456Y9698583D01*
X7569555Y9691522D01*
X7574737Y9683546D01*
X7581138Y9676587D01*
X7588605Y9670796D01*
X7596936Y9666274D01*
X7605928Y9663176D01*
X7615275Y9661652D01*
X7624724Y9661652D01*
X7634071Y9663176D01*
X7643063Y9666274D01*
X7651394Y9670796D01*
X7658862Y9676587D01*
X7665262Y9683546D01*
X7670444Y9691522D01*
X7674203Y9700006D01*
X7676388Y9703206D01*
X7679690Y9705340D01*
X7683500Y9706102D01*
X7687309Y9705340D01*
X7690561Y9703206D01*
X7692796Y9700006D01*
X7696555Y9691522D01*
X7701737Y9683546D01*
X7708138Y9676587D01*
X7715605Y9670796D01*
X7723936Y9666274D01*
X7732928Y9663176D01*
X7742275Y9661652D01*
X7751724Y9661652D01*
X7761071Y9663176D01*
X7770063Y9666274D01*
X7778394Y9670796D01*
X7785862Y9676587D01*
X7792262Y9683546D01*
X7797444Y9691522D01*
X7801203Y9700006D01*
X7803388Y9703206D01*
X7806690Y9705340D01*
X7810500Y9706102D01*
X7814309Y9705340D01*
X7817561Y9703206D01*
X7819796Y9700006D01*
X7823555Y9691522D01*
X7828737Y9683546D01*
X7835138Y9676587D01*
X7842605Y9670796D01*
X7850936Y9666274D01*
X7859928Y9663176D01*
X7869275Y9661652D01*
X7878724Y9661652D01*
X7888071Y9663176D01*
X7897063Y9666274D01*
X7905394Y9670796D01*
X7912862Y9676587D01*
X7919262Y9683546D01*
X7924444Y9691522D01*
X7928203Y9700006D01*
X7930388Y9703206D01*
X7933690Y9705340D01*
X7937500Y9706102D01*
X7941309Y9705340D01*
X7944561Y9703206D01*
X7946796Y9700006D01*
X7950555Y9691522D01*
X7955737Y9683546D01*
X7962138Y9676587D01*
X7969605Y9670796D01*
X7977936Y9666274D01*
X7986928Y9663176D01*
X7996275Y9661652D01*
X8005724Y9661652D01*
X8015071Y9663176D01*
X8024063Y9666274D01*
X8032394Y9670796D01*
X8039862Y9676587D01*
X8046262Y9683546D01*
X8051444Y9691522D01*
X8055254Y9700158D01*
X8057591Y9709353D01*
X8058403Y9719208D01*
X8058403Y9841890D01*
X8057591Y9851745D01*
X8055254Y9860940D01*
X8051444Y9869627D01*
X8046262Y9877552D01*
X8039862Y9884511D01*
X8032394Y9890353D01*
X8024063Y9894874D01*
X8015071Y9897922D01*
X8005724Y9899497D01*
X7996275Y9899497D01*
X7986928Y9897922D01*
X7977936Y9894874D01*
X7969605Y9890353D01*
X7962138Y9884511D01*
X7955737Y9877552D01*
X7950555Y9869627D01*
X7946796Y9861092D01*
X7944561Y9857892D01*
X7941309Y9855758D01*
X7937500Y9854996D01*
X7933690Y9855758D01*
X7930388Y9857892D01*
X7928203Y9861092D01*
X7924444Y9869627D01*
X7919262Y9877552D01*
X7912862Y9884511D01*
X7905394Y9890353D01*
X7897063Y9894874D01*
X7888071Y9897922D01*
X7878724Y9899497D01*
X7869275Y9899497D01*
X7859928Y9897922D01*
X7850936Y9894874D01*
X7842605Y9890353D01*
X7835138Y9884511D01*
X7828737Y9877552D01*
X7823555Y9869627D01*
X7819796Y9861092D01*
X7817561Y9857892D01*
X7814309Y9855758D01*
X7810500Y9854996D01*
X7806690Y9855758D01*
X7803388Y9857892D01*
X7801203Y9861092D01*
X7797444Y9869627D01*
X7792262Y9877552D01*
X7785862Y9884511D01*
X7778394Y9890353D01*
X7770063Y9894874D01*
X7761071Y9897922D01*
X7751724Y9899497D01*
X7742275Y9899497D01*
X7732928Y9897922D01*
X7723936Y9894874D01*
X7715605Y9890353D01*
X7708138Y9884511D01*
X7701737Y9877552D01*
X7696555Y9869627D01*
X7692796Y9861092D01*
X7690561Y9857892D01*
X7687309Y9855758D01*
X7683500Y9854996D01*
X7679690Y9855758D01*
X7676388Y9857892D01*
X7674203Y9861092D01*
X7670444Y9869627D01*
X7665262Y9877552D01*
X7658862Y9884511D01*
X7651394Y9890353D01*
X7643063Y9894874D01*
X7634071Y9897922D01*
X7624724Y9899497D01*
X7615275Y9899497D01*
X7605928Y9897922D01*
X7596936Y9894874D01*
X7588605Y9890353D01*
X7581138Y9884511D01*
X7574737Y9877552D01*
X7569555Y9869627D01*
X7566406Y9862515D01*
X7564221Y9859314D01*
X7560970Y9857181D01*
X7557109Y9856470D01*
X7468108Y9856419D01*
X7459268Y9855555D01*
X7456830Y9855149D01*
X7448194Y9853015D01*
X7445857Y9852253D01*
X7437628Y9848850D01*
X7435443Y9847732D01*
X7427823Y9843160D01*
X7425842Y9841738D01*
X7418984Y9836048D01*
X7274052Y9691166D01*
X7270750Y9688982D01*
X7266838Y9688220D01*
X7222032Y9688169D01*
X7213193Y9687306D01*
X7210755Y9686899D01*
X7202170Y9684766D01*
X7199833Y9684004D01*
X7191756Y9680651D01*
X7187590Y9678365D01*
X7185202Y9677450D01*
X7182713Y9677095D01*
X7173061Y9677095D01*
X7169150Y9677857D01*
X7165848Y9680092D01*
X6962292Y9883648D01*
X6960057Y9886950D01*
X6959295Y9890861D01*
X6959295Y9923119D01*
X6960057Y9927031D01*
X6962292Y9930333D01*
X6965594Y9932517D01*
X6969455Y9933279D01*
X7032853Y9933279D01*
X7039152Y9933990D01*
X7044588Y9935921D01*
X7049516Y9939020D01*
X7053580Y9943084D01*
X7056678Y9948011D01*
X7058609Y9953447D01*
X7059320Y9959746D01*
X7059320Y10258653D01*
X7058609Y10264952D01*
X7056678Y10270388D01*
X7053580Y10275316D01*
X7049516Y10279380D01*
X7044588Y10282478D01*
X7039152Y10284409D01*
X7032853Y10285120D01*
X6733946Y10285120D01*
X6727647Y10284409D01*
X6722211Y10282478D01*
X6717284Y10279380D01*
X6713220Y10275316D01*
X6710121Y10270388D01*
X6708190Y10264952D01*
X6707479Y10258653D01*
X6707479Y9959746D01*
X6708190Y9953447D01*
X6710121Y9948011D01*
X6713220Y9943084D01*
X6717284Y9939020D01*
X6722211Y9935921D01*
X6727647Y9933990D01*
X6733946Y9933279D01*
X6797344Y9933279D01*
X6801205Y9932517D01*
X6804507Y9930333D01*
X6806742Y9927031D01*
X6807504Y9923119D01*
X6807555Y9852558D01*
X6808368Y9843719D01*
X6808774Y9841280D01*
X6810908Y9832644D01*
X6811670Y9830308D01*
X6815074Y9822078D01*
X6816191Y9819894D01*
X6820814Y9812274D01*
X6827875Y9803434D01*
X7060946Y9570262D01*
X7063181Y9567011D01*
X7063943Y9563100D01*
X7063181Y9559188D01*
X7060946Y9555937D01*
X7031075Y9525965D01*
X7024014Y9517126D01*
X7019391Y9509506D01*
X7018274Y9507321D01*
X7014870Y9499092D01*
X7014108Y9496755D01*
X7011974Y9488119D01*
X7011568Y9485680D01*
X7010755Y9476841D01*
X7010755Y8988958D01*
X7011568Y8980119D01*
X7011974Y8977680D01*
X7014108Y8969044D01*
X7014870Y8966708D01*
X7018274Y8958478D01*
X7019391Y8956294D01*
X7024014Y8948674D01*
X7031075Y8939834D01*
X7136434Y8834475D01*
X7145274Y8827414D01*
X7152894Y8822791D01*
X7155078Y8821674D01*
X7163308Y8818270D01*
X7165644Y8817508D01*
X7174280Y8815374D01*
X7176719Y8814968D01*
X7185558Y8814155D01*
X7244537Y8814104D01*
X7248601Y8813241D01*
X7251953Y8810853D01*
X7254138Y8807297D01*
X7256221Y8801303D01*
X7259320Y8796375D01*
X7263384Y8792311D01*
X7268311Y8789212D01*
X7273747Y8787282D01*
X7280046Y8786571D01*
X7378953Y8786571D01*
X7385253Y8787282D01*
X7390688Y8789212D01*
X7395616Y8792311D01*
X7399680Y8796375D01*
X7402779Y8801303D01*
X7404709Y8806738D01*
X7405420Y8813088D01*
X7405420Y8966911D01*
X7404709Y8973261D01*
X7402779Y8978696D01*
X7399680Y8983624D01*
X7395616Y8987688D01*
X7390688Y8990787D01*
X7385253Y8992717D01*
X7378953Y8993428D01*
X7280046Y8993428D01*
X7273747Y8992717D01*
X7268311Y8990787D01*
X7263384Y8987688D01*
X7259320Y8983624D01*
X7256221Y8978696D01*
X7254138Y8972702D01*
X7251953Y8969146D01*
X7248601Y8966758D01*
X7244537Y8965895D01*
X7223861Y8965895D01*
X7219950Y8966657D01*
X7216648Y8968892D01*
X7165492Y9020048D01*
X7163257Y9023350D01*
X7162495Y9027261D01*
X7162495Y9438538D01*
X7163257Y9442450D01*
X7165492Y9445752D01*
X7181748Y9462008D01*
X7185050Y9464192D01*
X7188911Y9464954D01*
X7192822Y9464192D01*
X7196124Y9462008D01*
X7198309Y9458706D01*
X7199071Y9454794D01*
X7199071Y9362846D01*
X7199782Y9356547D01*
X7201712Y9351111D01*
X7204811Y9346184D01*
X7208875Y9342120D01*
X7213803Y9339021D01*
X7219238Y9337090D01*
X7225588Y9336379D01*
X7481163Y9336379D01*
X7485024Y9335617D01*
X7488326Y9333433D01*
X7541107Y9280652D01*
X7543342Y9277350D01*
X7544104Y9273438D01*
X7544104Y9244431D01*
X7544968Y9232747D01*
X7547508Y9221724D01*
X7551623Y9211157D01*
X7557312Y9201353D01*
X7560360Y9197492D01*
X7562037Y9194495D01*
X7562596Y9191142D01*
X7562596Y9182709D01*
X7563408Y9172854D01*
X7565745Y9163659D01*
X7569555Y9155023D01*
X7574737Y9147048D01*
X7581138Y9140088D01*
X7588605Y9134297D01*
X7596936Y9129776D01*
X7605928Y9126677D01*
X7615275Y9125153D01*
X7624724Y9125153D01*
X7634071Y9126677D01*
X7643063Y9129776D01*
X7651394Y9134297D01*
X7653934Y9136278D01*
X7657896Y9138158D01*
X7662214Y9138208D01*
X7666177Y9136481D01*
X7669072Y9133230D01*
X7670342Y9129064D01*
X7669733Y9124746D01*
X7667396Y9121089D01*
X7542682Y8996375D01*
X7539380Y8994190D01*
X7535468Y8993428D01*
X7480046Y8993428D01*
X7473746Y8992717D01*
X7468311Y8990787D01*
X7463383Y8987688D01*
X7459319Y8983624D01*
X7456220Y8978696D01*
X7454290Y8973261D01*
X7453579Y8966911D01*
X7453579Y8664600D01*
X7452817Y8660739D01*
X7450632Y8657437D01*
X7446619Y8653424D01*
X7443520Y8648496D01*
X7441590Y8643061D01*
X7440879Y8636711D01*
X7440879Y8482888D01*
X7441590Y8476538D01*
X7443520Y8471103D01*
X7446619Y8466175D01*
X7450683Y8462111D01*
X7455611Y8459012D01*
X7461046Y8457082D01*
X7467346Y8456371D01*
X7566253Y8456371D01*
X7572552Y8457082D01*
X7577988Y8459012D01*
X7582916Y8462111D01*
X7586980Y8466175D01*
X7590078Y8471103D01*
X7592009Y8476538D01*
X7592720Y8482888D01*
X7592720Y8527897D01*
X7593126Y8530742D01*
X7594244Y8533333D01*
X7597800Y8539378D01*
X7601203Y8547608D01*
X7601966Y8549944D01*
X7604099Y8558580D01*
X7604506Y8561019D01*
X7605369Y8569858D01*
X7605420Y8868511D01*
X7606182Y8872372D01*
X7608366Y8875674D01*
X7792364Y9059621D01*
X7795666Y9061856D01*
X7799527Y9062618D01*
X7803438Y9061856D01*
X7806740Y9059621D01*
X7808925Y9056319D01*
X7809687Y9052458D01*
X7809687Y8979408D01*
X7808925Y8975547D01*
X7806740Y8972245D01*
X7805420Y8970924D01*
X7802321Y8965996D01*
X7800390Y8960561D01*
X7799679Y8954211D01*
X7799679Y8909202D01*
X7799273Y8906357D01*
X7798155Y8903766D01*
X7794599Y8897721D01*
X7791196Y8889492D01*
X7790434Y8887155D01*
X7788300Y8878519D01*
X7787894Y8876080D01*
X7787030Y8867241D01*
X7787030Y8390432D01*
X7787894Y8381593D01*
X7788300Y8379155D01*
X7790434Y8370570D01*
X7791196Y8368233D01*
X7794599Y8360003D01*
X7795717Y8357819D01*
X7800289Y8350199D01*
X7801711Y8348167D01*
X7807401Y8341309D01*
X7936534Y8212175D01*
X7945374Y8205114D01*
X7952994Y8200491D01*
X7955178Y8199374D01*
X7963408Y8195970D01*
X7965744Y8195208D01*
X7974380Y8193074D01*
X7976819Y8192668D01*
X7985658Y8191855D01*
G37*
G36*
X8577376Y8379866D02*
G01*
X8796223Y8379866D01*
X8802573Y8380628D01*
X8808008Y8382508D01*
X8812936Y8385606D01*
X8817000Y8389670D01*
X8820099Y8394598D01*
X8821978Y8400034D01*
X8822690Y8406384D01*
X8822690Y8605215D01*
X8821978Y8611565D01*
X8820099Y8617000D01*
X8817000Y8621928D01*
X8812936Y8625992D01*
X8808008Y8629091D01*
X8802573Y8630970D01*
X8796223Y8631682D01*
X8577376Y8631682D01*
X8571026Y8630970D01*
X8565591Y8629091D01*
X8560663Y8625992D01*
X8556599Y8621928D01*
X8553500Y8617000D01*
X8551621Y8611565D01*
X8550910Y8605215D01*
X8550910Y8593480D01*
X8550097Y8589568D01*
X8547912Y8586266D01*
X8544610Y8584082D01*
X8540750Y8583320D01*
X8415832Y8583269D01*
X8406993Y8582406D01*
X8404555Y8581999D01*
X8395970Y8579866D01*
X8393633Y8579104D01*
X8385403Y8575700D01*
X8383219Y8574582D01*
X8375599Y8570010D01*
X8373567Y8568588D01*
X8366810Y8562949D01*
X8351926Y8548166D01*
X8348624Y8545982D01*
X8344763Y8545220D01*
X8279688Y8545220D01*
X8273338Y8544509D01*
X8267903Y8542578D01*
X8262975Y8539480D01*
X8258911Y8535416D01*
X8255812Y8530488D01*
X8253882Y8525052D01*
X8253171Y8518753D01*
X8253171Y8419846D01*
X8253882Y8413546D01*
X8255812Y8408111D01*
X8258911Y8403183D01*
X8262975Y8399119D01*
X8267903Y8396020D01*
X8273338Y8394090D01*
X8279688Y8393379D01*
X8433511Y8393379D01*
X8439861Y8394090D01*
X8445296Y8396020D01*
X8450224Y8399119D01*
X8454288Y8403183D01*
X8457387Y8408111D01*
X8459317Y8413546D01*
X8460028Y8421319D01*
X8460790Y8425230D01*
X8462975Y8428532D01*
X8466277Y8430717D01*
X8470188Y8431479D01*
X8540750Y8431479D01*
X8544610Y8430717D01*
X8547912Y8428532D01*
X8550097Y8425230D01*
X8550910Y8421319D01*
X8550910Y8406384D01*
X8551621Y8400034D01*
X8553500Y8394598D01*
X8556599Y8389670D01*
X8560663Y8385606D01*
X8565591Y8382508D01*
X8571026Y8380628D01*
G37*
G36*
X9906000Y8691219D02*
G01*
X9915601Y8692083D01*
X9924897Y8694572D01*
X9933635Y8698636D01*
X9941509Y8704173D01*
X9948316Y8710980D01*
X9953853Y8718854D01*
X9957917Y8727592D01*
X9960406Y8736939D01*
X9961321Y8746947D01*
X9961321Y8751468D01*
X9962032Y8755176D01*
X9964013Y8758377D01*
X9965334Y8759799D01*
X9971735Y8769146D01*
X9976612Y8779357D01*
X9979964Y8790228D01*
X9981692Y8801404D01*
X9981692Y8812784D01*
X9979964Y8823960D01*
X9976612Y8834831D01*
X9971735Y8845042D01*
X9965334Y8854389D01*
X9964013Y8855811D01*
X9962032Y8859012D01*
X9961321Y8862720D01*
X9961321Y8867292D01*
X9960406Y8877300D01*
X9957917Y8886596D01*
X9953853Y8895334D01*
X9948316Y8903258D01*
X9941509Y8910066D01*
X9933635Y8915552D01*
X9924897Y8919667D01*
X9915601Y8922156D01*
X9906000Y8922969D01*
X9896398Y8922156D01*
X9887102Y8919667D01*
X9878364Y8915552D01*
X9870490Y8910066D01*
X9863683Y8903258D01*
X9858146Y8895334D01*
X9855098Y8888882D01*
X9852863Y8885783D01*
X9849662Y8883700D01*
X9845903Y8882989D01*
X9808667Y8882989D01*
X9804755Y8883751D01*
X9801453Y8885986D01*
X9740290Y8947099D01*
X9733432Y8952788D01*
X9731400Y8954211D01*
X9723780Y8958783D01*
X9721596Y8959900D01*
X9713366Y8963304D01*
X9711029Y8964066D01*
X9702444Y8966200D01*
X9700006Y8966606D01*
X9691166Y8967470D01*
X9201861Y8967520D01*
X9198000Y8968282D01*
X9194698Y8970467D01*
X9183014Y8982049D01*
X9176207Y8987688D01*
X9174226Y8989110D01*
X9166606Y8993682D01*
X9164421Y8994800D01*
X9156192Y8998204D01*
X9153855Y8998966D01*
X9145219Y9001099D01*
X9142780Y9001506D01*
X9133941Y9002369D01*
X8591346Y9002420D01*
X8585047Y9001709D01*
X8579561Y8999778D01*
X8574684Y8996680D01*
X8570569Y8992616D01*
X8567521Y8987688D01*
X8565591Y8982252D01*
X8565083Y8977528D01*
X8564524Y8975090D01*
X8563356Y8972905D01*
X8557564Y8964422D01*
X8552688Y8954211D01*
X8549335Y8943390D01*
X8547608Y8932164D01*
X8547608Y8920835D01*
X8549335Y8909608D01*
X8552688Y8898788D01*
X8557564Y8888577D01*
X8563356Y8880094D01*
X8564473Y8877909D01*
X8565083Y8875471D01*
X8565591Y8870746D01*
X8567521Y8865260D01*
X8570569Y8860383D01*
X8574684Y8856268D01*
X8579561Y8853220D01*
X8585047Y8851290D01*
X8591346Y8850579D01*
X9055811Y8850579D01*
X9059722Y8849817D01*
X9063024Y8847632D01*
X9065209Y8844330D01*
X9066682Y8832646D01*
X9068612Y8827211D01*
X9071711Y8822283D01*
X9075775Y8818219D01*
X9080703Y8815120D01*
X9086138Y8813190D01*
X9092488Y8812479D01*
X9246311Y8812479D01*
X9252661Y8813190D01*
X9258147Y8815120D01*
X9261500Y8815679D01*
X9652863Y8815679D01*
X9656724Y8814917D01*
X9660026Y8812733D01*
X9721240Y8751570D01*
X9730079Y8744508D01*
X9737699Y8739886D01*
X9739884Y8738768D01*
X9748113Y8735364D01*
X9750450Y8734602D01*
X9759086Y8732469D01*
X9761524Y8732062D01*
X9770364Y8731250D01*
X9845903Y8731199D01*
X9849662Y8730488D01*
X9852914Y8728405D01*
X9855149Y8725306D01*
X9858146Y8718854D01*
X9863683Y8710980D01*
X9870490Y8704173D01*
X9878364Y8698636D01*
X9887102Y8694572D01*
X9896398Y8692083D01*
G37*
G36*
X9473488Y9015679D02*
G01*
X9627311Y9015679D01*
X9633661Y9016390D01*
X9639096Y9018320D01*
X9644024Y9021419D01*
X9648088Y9025483D01*
X9651187Y9030411D01*
X9653117Y9035846D01*
X9653828Y9042146D01*
X9653828Y9141053D01*
X9653117Y9147352D01*
X9651187Y9152788D01*
X9648088Y9157716D01*
X9644024Y9161780D01*
X9639096Y9164878D01*
X9633661Y9166809D01*
X9627311Y9167520D01*
X9622739Y9167520D01*
X9619437Y9168079D01*
X9616490Y9169654D01*
X9614204Y9172143D01*
X9611461Y9176359D01*
X9605924Y9183065D01*
X9473692Y9315399D01*
X9471456Y9318650D01*
X9470694Y9322562D01*
X9471456Y9326473D01*
X9473692Y9329724D01*
X9566249Y9422333D01*
X9569551Y9424517D01*
X9573412Y9425279D01*
X10037267Y9425330D01*
X10046106Y9426194D01*
X10048544Y9426600D01*
X10057130Y9428734D01*
X10059466Y9429496D01*
X10067696Y9432899D01*
X10069880Y9434017D01*
X10077500Y9438589D01*
X10079532Y9440011D01*
X10086390Y9445701D01*
X10200589Y9559848D01*
X10203891Y9562084D01*
X10207802Y9562846D01*
X10475163Y9562846D01*
X10488828Y9563354D01*
X10492994Y9563709D01*
X10506506Y9565640D01*
X10510621Y9566402D01*
X10523880Y9569653D01*
X10527893Y9570872D01*
X10540695Y9575444D01*
X10544606Y9577019D01*
X10556900Y9582861D01*
X10560608Y9584893D01*
X10572242Y9591954D01*
X10575747Y9594291D01*
X10586618Y9602470D01*
X10589818Y9605162D01*
X10599877Y9614509D01*
X10741456Y9756089D01*
X10750753Y9766096D01*
X10753445Y9769348D01*
X10761675Y9780219D01*
X10764012Y9783673D01*
X10771073Y9795357D01*
X10773054Y9799066D01*
X10778896Y9811359D01*
X10780522Y9815220D01*
X10785094Y9828072D01*
X10786262Y9832086D01*
X10789513Y9845294D01*
X10790326Y9849459D01*
X10792206Y9862921D01*
X10792612Y9867138D01*
X10793120Y9880803D01*
X10793120Y10258653D01*
X10792409Y10264952D01*
X10790478Y10270388D01*
X10787380Y10275316D01*
X10783316Y10279380D01*
X10778388Y10282478D01*
X10772952Y10284409D01*
X10766653Y10285120D01*
X10467746Y10285120D01*
X10461447Y10284409D01*
X10456011Y10282478D01*
X10451084Y10279380D01*
X10447020Y10275316D01*
X10443921Y10270388D01*
X10441990Y10264952D01*
X10441279Y10258653D01*
X10441279Y9957663D01*
X10440517Y9953802D01*
X10438333Y9950500D01*
X10405465Y9917633D01*
X10402163Y9915398D01*
X10398252Y9914636D01*
X10147452Y9914636D01*
X10138410Y9914432D01*
X10129520Y9913721D01*
X10120680Y9912604D01*
X10111892Y9911029D01*
X10103205Y9909048D01*
X10094620Y9906558D01*
X10086187Y9903714D01*
X10077907Y9900412D01*
X10069830Y9896652D01*
X10061956Y9892538D01*
X10054234Y9888016D01*
X10046817Y9883140D01*
X10039604Y9877856D01*
X10032746Y9872218D01*
X10029545Y9869322D01*
X10025938Y9867239D01*
X10021824Y9866731D01*
X10020300Y9866884D01*
X10010698Y9866020D01*
X10001402Y9863531D01*
X9992664Y9859467D01*
X9984790Y9853930D01*
X9977983Y9847122D01*
X9972446Y9839248D01*
X9968382Y9830511D01*
X9966604Y9823958D01*
X9964572Y9820097D01*
X9961118Y9817404D01*
X9956800Y9816439D01*
X9952532Y9817404D01*
X9949027Y9820097D01*
X9946995Y9823958D01*
X9945217Y9830511D01*
X9941153Y9839248D01*
X9935667Y9847122D01*
X9928809Y9853930D01*
X9920935Y9859467D01*
X9912197Y9863531D01*
X9902901Y9866020D01*
X9893300Y9866884D01*
X9883698Y9866020D01*
X9874402Y9863531D01*
X9865664Y9859467D01*
X9857790Y9853930D01*
X9850983Y9847122D01*
X9845446Y9839248D01*
X9841382Y9830511D01*
X9838893Y9821214D01*
X9837978Y9811156D01*
X9837978Y9794290D01*
X9837420Y9790938D01*
X9835794Y9787991D01*
X9831425Y9782556D01*
X9829241Y9780473D01*
X9826498Y9779152D01*
X9823500Y9778695D01*
X9290202Y9778695D01*
X9286443Y9779406D01*
X9283242Y9781489D01*
X9271965Y9792106D01*
X9260179Y9800640D01*
X9247428Y9807651D01*
X9233916Y9813036D01*
X9219844Y9816642D01*
X9205366Y9818471D01*
X9190837Y9818471D01*
X9176410Y9816642D01*
X9162288Y9813036D01*
X9148775Y9807651D01*
X9136024Y9800640D01*
X9124238Y9792106D01*
X9113621Y9782149D01*
X9104376Y9770922D01*
X9096552Y9758629D01*
X9090355Y9745472D01*
X9085884Y9731603D01*
X9083141Y9717328D01*
X9082227Y9702800D01*
X9083141Y9688271D01*
X9085884Y9673996D01*
X9090355Y9660128D01*
X9096552Y9646970D01*
X9104376Y9634677D01*
X9113621Y9623450D01*
X9124238Y9613493D01*
X9136024Y9604959D01*
X9148775Y9597948D01*
X9162288Y9592564D01*
X9176410Y9588957D01*
X9190837Y9587128D01*
X9205366Y9587128D01*
X9219844Y9588957D01*
X9233916Y9592564D01*
X9247428Y9597948D01*
X9260179Y9604959D01*
X9271965Y9613493D01*
X9283242Y9624110D01*
X9286443Y9626193D01*
X9290202Y9626904D01*
X9450171Y9626904D01*
X9454438Y9625990D01*
X9460788Y9625279D01*
X9614611Y9625279D01*
X9620961Y9625990D01*
X9625228Y9626904D01*
X9850221Y9626904D01*
X9854133Y9626142D01*
X9865664Y9618014D01*
X9874402Y9613950D01*
X9883698Y9611461D01*
X9893300Y9610648D01*
X9902901Y9611461D01*
X9912197Y9613950D01*
X9920935Y9618014D01*
X9928809Y9623552D01*
X9935667Y9630359D01*
X9941153Y9638284D01*
X9945014Y9646564D01*
X9946944Y9649358D01*
X9950754Y9653270D01*
X9954310Y9655657D01*
X9958527Y9656368D01*
X9962642Y9655302D01*
X9965944Y9652609D01*
X9967874Y9648850D01*
X9968382Y9647021D01*
X9972446Y9638284D01*
X9977983Y9630359D01*
X9984790Y9623552D01*
X9992664Y9618014D01*
X10001402Y9613950D01*
X10010698Y9611461D01*
X10013645Y9611207D01*
X10017353Y9610191D01*
X10020350Y9607854D01*
X10022332Y9604552D01*
X10022941Y9600793D01*
X10022078Y9597085D01*
X10019944Y9593884D01*
X10006126Y9580067D01*
X10002824Y9577882D01*
X9998964Y9577120D01*
X9460788Y9577120D01*
X9454438Y9576409D01*
X9449003Y9574479D01*
X9444075Y9571380D01*
X9440011Y9567316D01*
X9436912Y9562388D01*
X9434982Y9556953D01*
X9434271Y9550654D01*
X9434271Y9509252D01*
X9433509Y9505391D01*
X9431324Y9502089D01*
X9329928Y9400692D01*
X9326626Y9398457D01*
X9322714Y9397695D01*
X9278162Y9397695D01*
X9274098Y9398558D01*
X9270746Y9400946D01*
X9268561Y9404502D01*
X9266478Y9410496D01*
X9263380Y9415424D01*
X9259316Y9419488D01*
X9254388Y9422587D01*
X9248952Y9424517D01*
X9242653Y9425228D01*
X9143746Y9425228D01*
X9137446Y9424517D01*
X9132011Y9422587D01*
X9127083Y9419488D01*
X9123019Y9415424D01*
X9119920Y9410496D01*
X9117990Y9405061D01*
X9117279Y9398711D01*
X9117279Y9244888D01*
X9117990Y9238538D01*
X9119920Y9233103D01*
X9123019Y9228175D01*
X9127083Y9224111D01*
X9132011Y9221012D01*
X9137446Y9219082D01*
X9143746Y9218371D01*
X9242653Y9218371D01*
X9248952Y9219082D01*
X9254388Y9221012D01*
X9259316Y9224111D01*
X9263380Y9228175D01*
X9266478Y9233103D01*
X9268561Y9239097D01*
X9270746Y9242653D01*
X9274098Y9245041D01*
X9278162Y9245904D01*
X9324238Y9245904D01*
X9328150Y9245142D01*
X9331452Y9242907D01*
X9444024Y9130334D01*
X9446209Y9127032D01*
X9446971Y9123172D01*
X9446971Y9042146D01*
X9447682Y9035846D01*
X9449612Y9030411D01*
X9452711Y9025483D01*
X9456775Y9021419D01*
X9461703Y9018320D01*
X9467138Y9016390D01*
G37*
G36*
X8943746Y9218371D02*
G01*
X9042654Y9218371D01*
X9048953Y9219082D01*
X9054388Y9221012D01*
X9059316Y9224111D01*
X9063380Y9228175D01*
X9066479Y9233103D01*
X9068409Y9238538D01*
X9069120Y9244888D01*
X9069120Y9398711D01*
X9068409Y9405061D01*
X9066479Y9410496D01*
X9063380Y9415424D01*
X9059316Y9419488D01*
X9054388Y9422587D01*
X9048953Y9424517D01*
X9042654Y9425228D01*
X8943746Y9425228D01*
X8937447Y9424517D01*
X8932011Y9422587D01*
X8927084Y9419488D01*
X8923020Y9415424D01*
X8919921Y9410496D01*
X8917686Y9404146D01*
X8915552Y9400590D01*
X8912199Y9398203D01*
X8908135Y9397339D01*
X8722106Y9396526D01*
X8718194Y9397288D01*
X8714892Y9399524D01*
X8712708Y9402826D01*
X8711895Y9406686D01*
X8711844Y9451441D01*
X8711031Y9460280D01*
X8710625Y9462719D01*
X8708491Y9471355D01*
X8707729Y9473692D01*
X8704326Y9481921D01*
X8703208Y9484106D01*
X8698585Y9491726D01*
X8691524Y9500565D01*
X8433765Y9758324D01*
X8426754Y9764115D01*
X8424672Y9766503D01*
X8421827Y9770922D01*
X8412581Y9782149D01*
X8401964Y9792106D01*
X8390178Y9800640D01*
X8377428Y9807651D01*
X8363915Y9813036D01*
X8349792Y9816642D01*
X8335365Y9818471D01*
X8320836Y9818471D01*
X8306358Y9816642D01*
X8292287Y9813036D01*
X8278774Y9807651D01*
X8266023Y9800640D01*
X8254238Y9792106D01*
X8243620Y9782149D01*
X8234324Y9770922D01*
X8226552Y9758629D01*
X8220354Y9745472D01*
X8215833Y9731603D01*
X8213140Y9717328D01*
X8212226Y9702800D01*
X8213140Y9688271D01*
X8215833Y9673996D01*
X8220354Y9660128D01*
X8226552Y9646970D01*
X8234324Y9634677D01*
X8243620Y9623450D01*
X8254238Y9613493D01*
X8266023Y9604959D01*
X8278774Y9597948D01*
X8292287Y9592564D01*
X8306358Y9588957D01*
X8320836Y9587128D01*
X8335365Y9587128D01*
X8349792Y9588957D01*
X8363915Y9592564D01*
X8372703Y9596069D01*
X8376564Y9596780D01*
X8380374Y9595967D01*
X8383625Y9593834D01*
X8557107Y9420352D01*
X8559342Y9417050D01*
X8560104Y9413138D01*
X8560104Y9320479D01*
X8560358Y9314281D01*
X8560968Y9308998D01*
X8562086Y9303054D01*
X8563457Y9297924D01*
X8565489Y9292234D01*
X8567623Y9287357D01*
X8570417Y9282023D01*
X8573211Y9277604D01*
X8575700Y9274403D01*
X8577072Y9272016D01*
X8577732Y9269323D01*
X8578291Y9264446D01*
X8580221Y9258960D01*
X8583269Y9254083D01*
X8587384Y9249968D01*
X8592261Y9246920D01*
X8597747Y9244990D01*
X8604046Y9244279D01*
X8667953Y9244279D01*
X8670493Y9244533D01*
X8908288Y9245549D01*
X8912402Y9244685D01*
X8915806Y9242298D01*
X8917940Y9238742D01*
X8919921Y9233103D01*
X8923020Y9228175D01*
X8927084Y9224111D01*
X8932011Y9221012D01*
X8937447Y9219082D01*
G37*

%LPD*%
D10*
X8712200Y8107426D02*
G01*
X9033256Y8107426D01*
X9144000Y8218170D01*
X8382000Y8470900D02*
G01*
X8418499Y8507399D01*
X8712200Y8507399D01*
X9144000Y8218093D02*
G01*
X9297593Y8218093D01*
X9298000Y8218500D01*
X9550400Y8218500D01*
X9550400Y8891600D02*
G01*
X9688499Y8891600D01*
X9773005Y8807094D01*
X9906000Y8807094D01*
X8062973Y8547100D02*
G01*
X8242373Y8726500D01*
X8528304Y8726500D01*
X8528298Y8726500D02*
G01*
X8420100Y8834704D01*
X8420100Y8999296D01*
X8541004Y9120200D01*
X7316800Y8559800D02*
G01*
X7124700Y8559800D01*
X6883400Y8318500D01*
X6883400Y8039100D01*
X7302500Y9612299D02*
G01*
X7291400Y9601200D01*
X7137400Y9601200D01*
X6883400Y9855200D01*
X6883400Y10109200D01*
X9193275Y9321800D02*
G01*
X9358375Y9321800D01*
X9537700Y9501124D01*
X9550400Y9091599D02*
G01*
X9550400Y9131300D01*
X9359900Y9321800D01*
X9193199Y9321800D01*
X7516873Y9412226D02*
G01*
X8139173Y9412226D01*
X8431199Y9120200D01*
X8541004Y9120200D01*
X9169400Y8888399D02*
G01*
X9172600Y8891600D01*
X9550400Y8891600D01*
X7302500Y9612299D02*
G01*
X7470749Y9780549D01*
X7620000Y9780549D01*
X8623300Y8926499D02*
G01*
X9131300Y8926499D01*
X9169400Y8888399D01*
X9537700Y9701199D02*
G01*
X9536099Y9702800D01*
X9198000Y9702800D01*
X7516799Y8559800D02*
G01*
X7529499Y8572500D01*
X7529499Y8890000D01*
X7329426Y8890000D02*
G01*
X7188200Y8890000D01*
X7086600Y8991600D01*
X7086600Y9474200D01*
X7224699Y9612299D01*
X7302500Y9612299D01*
X8356600Y8269300D02*
G01*
X8354999Y8267700D01*
X7988300Y8267700D01*
X7862900Y8393099D01*
X7862900Y8547100D01*
X7862900Y8547100D02*
G01*
X7862900Y8864600D01*
X7875600Y8877300D01*
D11*
X7529499Y8890000D02*
G01*
X7746987Y9107487D01*
X7746992Y9244048D01*
X7875600Y8877300D02*
G01*
X7875600Y9242437D01*
X7873987Y9244050D01*
D10*
X7620000Y9244073D02*
G01*
X7620000Y9309100D01*
X7516799Y9412300D01*
X7302500Y9412300D01*
X8636000Y9320276D02*
G01*
X8993124Y9321800D01*
X8636000Y9320276D02*
G01*
X8636000Y9448800D01*
X8382000Y9702800D01*
X8328152Y9702800D01*
D12*
X10274300Y9738740D02*
G01*
X10147300Y9738740D01*
X10147300Y9729749D01*
X10210800Y9194800D02*
G01*
X10263759Y9194800D01*
X10274300Y9184259D01*
X10265308Y9193250D01*
X9893300Y9193250D01*
D10*
X9550400Y8218500D02*
G01*
X9837394Y8218500D01*
X9906000Y8287105D01*
D12*
X10287000Y8287105D02*
G01*
X9880602Y8287105D01*
X9880600Y8287103D01*
X10287000Y8287105D02*
G01*
X10331094Y8287105D01*
X10604500Y8013700D01*
X10274300Y9184259D02*
G01*
X10515600Y8942959D01*
X10515600Y8515604D01*
X10287000Y8287004D01*
D10*
X9537700Y9501200D02*
G01*
X10034600Y9501200D01*
X10147300Y9613900D01*
X10147300Y9738740D01*
X9893300Y9738740D02*
G01*
X9893300Y9702800D01*
X9198099Y9702800D01*
D12*
X10617200Y10109200D02*
G01*
X10617200Y9880600D01*
X10475340Y9738740D01*
X10147300Y9738740D01*
D13*
G01*
X9906000Y8287105D03*
G01*
X10033000Y8287105D03*
G01*
X10160000Y8287105D03*
G01*
X10287000Y8287105D03*
G01*
X9906000Y8807094D03*
G01*
X10033000Y8807094D03*
G01*
X10160000Y8807094D03*
G01*
X10287000Y8807094D03*
D14*
G01*
X9893300Y9184259D03*
G01*
X10020300Y9184259D03*
G01*
X10147300Y9184259D03*
G01*
X10274300Y9184259D03*
G01*
X9893300Y9738740D03*
G01*
X10020300Y9738740D03*
G01*
X10147300Y9738740D03*
G01*
X10274300Y9738740D03*
D15*
G01*
X8686800Y8505799D03*
G01*
X8686800Y8105800D03*
D16*
G01*
X9550400Y8891600D03*
G01*
X9550400Y9091599D03*
D17*
G01*
X8541004Y9120200D03*
G01*
X8730995Y9120200D03*
G01*
X8636000Y9320199D03*
G01*
X8528304Y8726500D03*
G01*
X8718295Y8726500D03*
G01*
X8623300Y8926499D03*
D18*
G01*
X7620000Y9244050D03*
G01*
X7747000Y9244050D03*
G01*
X7874000Y9244050D03*
G01*
X8001000Y9244050D03*
G01*
X7620000Y9780549D03*
G01*
X7747000Y9780549D03*
G01*
X7874000Y9780549D03*
G01*
X8001000Y9780549D03*
D16*
G01*
X7302500Y9412300D03*
G01*
X7302500Y9612299D03*
D20*
G01*
X7862900Y8547100D03*
G01*
X8062899Y8547100D03*
G01*
X7316800Y8559800D03*
G01*
X7516799Y8559800D03*
G01*
X7329500Y8890000D03*
G01*
X7529499Y8890000D03*
D16*
G01*
X8356600Y8469299D03*
G01*
X8356600Y8269300D03*
D20*
G01*
X8075599Y8877300D03*
G01*
X7875600Y8877300D03*
D16*
G01*
X9537700Y9501200D03*
G01*
X9537700Y9701199D03*
D20*
G01*
X8993200Y9321800D03*
G01*
X9193199Y9321800D03*
D16*
G01*
X9169400Y8688400D03*
G01*
X9169400Y8888399D03*
G01*
X9550400Y8218500D03*
G01*
X9550400Y8418499D03*
D21*
G01*
X8328101Y9702800D03*
G01*
X9198102Y9702800D03*
D22*
G01*
X9144000Y8368106D03*
G01*
X9144000Y8218093D03*
D23*
G01*
X6883400Y10109200D03*
G01*
X6883400Y8039100D03*
G01*
X10604500Y8013700D03*
G01*
X10617200Y10109200D03*
G01*
X8763000Y10121900D03*
M02*
